<svg xmlns="http://www.w3.org/2000/svg" viewBox="0 0 841.9 595.3">
  <g fill="#61DAFB">
    <path d="M666.3 296.5c0-32.5-40.7-63.3-103.1-82.4 14.4-10.9 27.7-23.8 39.3-37.5 13.7-14.7 23.3-32 27.7-52 6.6-29.8 5-63.3-2.4-79.6-11.2-24.1-39.7-37.4-65.4-37.9-23.3-.4-56.6 2.5-73.5 12.4-17.7 10.7-32.7 26.4-44.2 46-13.7 23.6-22.1 51.7-24.3 84.1-3.1 46.9 1.1 84.4 14.4 103.1 3.3 4.8 5.5 8.8 8 13-20-3.5-41.5-9.4-63.9-18.6-22.7-9.3-44.4-21.2-64.4-36-18.6-13.8-34.9-29.8-48.6-47.6-16-20.7-27.8-43.2-34.8-67.6-17.1-58 2.7-113.8 58.7-133.8 19.4-7 44.6-9.6 71.4-9.6 51.3 0 127.9 16.2 201.2 50.4 5.2 2.4 10.4 5.1 15.4 8-7.9 17.5-26.9 33-46.6 44.2-16.6 9.8-35.6 16.5-56.2 19.3-3.6 30.6-1.1 63.8 6.9 75.2 12.1 17.3 34.3 26.3 61.6 26.3 26.8 0 52-7.8 70.2-24.7 6.4-5.9 11.9-12.2 16.6-18.7zM309.8 206c-3.1-15.7-9.9-30.4-20.7-43.1-32.9-40.9-88.7-56.8-135.2-40.4-19.4 6.6-35.7 17.7-48.4 33-14.7 17.7-25 38.8-30.1 61.9-16.7 76.5 35.3 140.1 113.8 141.4 19.6.3 39.4-2.8 58-9.9 22.1-8.1 41.5-20.8 58.2-38.3 16.3-17 28.6-36.8 37.1-59.1 8-20.8 12.2-43.7 12.2-67.6-.2-23.7-4.5-46.9-12.7-67.6z" />
    <circle cx="420.9" cy="296.5" r="45.7" />
  </g>
</svg>
